<?xml version="1.0" encoding="UTF-8"?>
<svg version="1.2" viewBox="0 0 750 225" xmlns="http://www.w3.org/2000/svg" xmlns:xlink="http://www.w3.org/1999/xlink">
<defs>
<symbol id="e" overflow="visible">
<path d="m120.36-82.324c-5.7773-5.7773-12.035-10.594-20.461-10.594-1.2031 0-2.4062 0-3.6133 0.24219-1.9258 0.48047-3.8516 0.48047-5.7773 0.72266 5.0586-4.332 10.594-7.4648 15.648-10.832 5.2969-3.8516 11.074-7.4648 14.441-13.242 6.0195-10.59 7.9453-21.902 6.0195-33.699-3.1289-16.609-19.98-24.07-35.387-24.07-15.645 0-30.328 6.5-43.809 13.719-2.4062 1.4453-4.8164 2.8906-6.7422 4.8164-5.0547 5.293-10.109 11.07-15.164 16.609-0.24219 0.48047 0 1.2031 0 1.6836 1.6836 0.24219 3.1289 0.24219 5.0547 0.48047 2.168-3.1289 3.8516-6.7383 6.5-9.3867 9.6289-9.6289 30.57-18.293 43.09-22.145 1.9258-0.72266 3.8516-0.96484 5.7773-0.96484 11.07 0 20.461 10.352 24.312 18.777 0.23828 0.72266 0.48047 1.6836 0.48047 2.4062-0.24219 5.2969-0.24219 10.832-1.4453 16.129-3.8516 15.645-24.312 30.812-38.031 36.828-2.168 0.96484-4.0938 2.6484-5.7773 4.0938-0.72266 0.72266-1.6875 2.6484-1.4453 3.3711 1.6836 2.1641 5.0547 2.6445 7.4609 2.6445 3.3711 0 6.5-0.96094 9.8711-1.9258 1.9258-0.71875 3.8516-0.96094 5.7773-0.96094 8.1836 0 16.129 5.2969 18.055 14.684 1.4414 6.0195 1.4414 11.555 0 17.332-1.4453 5.7773-11.074 28.887-15.648 32.738-12.758 11.793-28.887 19.258-46.457 19.258-11.797 0-21.906-3.8516-28.887-14.445-8.1836-12.035-10.109-24.793-2.168-37.793 3.8516-6.2578 9.3906-9.6289 16.852-10.352-3.1289 7.4648-6.7422 14.445-10.352 21.426-0.96094 2.168-2.4062 4.332-3.6094 6.7383-0.72266 1.4453-0.24219 2.8906 1.2031 3.8516 1.6836 1.207 3.6094 1.6875 5.5352 1.6875 3.6094 0 6.9805-1.6875 8.9062-4.332 4.5742-7.2227 8.9062-14.684 13.242-21.906 1.4414-2.6484 3.1289-5.2969 5.0547-8.4258 9.3867 6.2578 12.516 10.832 13.719 22.867 0.24219 3.1289 1.9258 4.8164 4.8164 4.8164 0.48047 0 1.2031-0.24219 1.6836-0.24219 3.1289-0.24219 4.332-1.6836 3.6094-5.2969-2.8867-15.164-8.4219-20.941-22.145-26.957 0.48047-1.4453 0.72266-2.8906 1.2031-4.0938 6.5-16.609 13.238-32.98 19.5-49.828 1.9258-5.0547 2.8867-10.832 3.3672-16.371 0.48438-4.332-0.96094-8.6641-1.2031-13.238-0.23828-3.3711-1.2031-4.8125-3.3711-4.8125-0.71875 0-1.6836 0-2.6445 0.48047-2.168 0.72266-4.3359 2.4062-6.0195 4.0938-1.6836 2.1641-2.8867 4.8125-3.6094 7.2188-3.3711 9.8711-6.2617 19.738-9.3906 29.367-5.293 15.648-11.07 31.535-16.367 46.941-3.8516 0.96094-7.2227 1.4453-10.352 2.4062-6.7383 2.168-12.516 6.0195-16.367 12.277-6.0195 10.109-6.5 20.461-2.4102 31.293 8.1875 20.219 23.109 25.516 43.09 25.516h10.832c12.277 0 34.184-11.555 44.293-18.055 8.9062-6.0156 16.609-13.238 20.461-23.828 3.8516-10.113 5.7773-20.461 1.9258-31.055-1.2031-2.8867-1.2031-6.7383-3.1289-8.6641z"/>
</symbol>
<symbol id="a" overflow="visible">
<path d="m58.734-71.734c-1.9258 3.1289-3.8516 6.2578-6.5 8.9062-5.5352 5.7773-11.555 11.555-17.57 17.094-3.3711 3.1289-7.7031 4.332-12.277 4.8125-3.8516 0-5.2969-0.72266-5.5352-4.8125-0.72266-7.7031-1.4453-15.648 6.7383-20.465 1.4453-0.96094 2.6484-2.4062 3.8516-3.6094 7.4609-5.0547 10.832-12.516 12.758-20.699 1.2031-5.5391-0.23828-7.9453-6.0156-8.668-1.4453-0.24219-2.8906-0.24219-4.0938-0.24219-20.703 0-29.367 20.461-33.219 37.555-0.72266 2.8867-0.96484 6.0156-0.72266 9.1445 1.2031 13.48 10.59 18.777 22.867 18.777 9.6289 0 18.055-3.3711 24.797-11.312 3.3672-4.0938 7.4609-7.9453 11.07-12.035 3.6133-3.8516 6.9805-8.1875 10.352-12.52 0.96484-1.4453 1.4453-3.3711 2.4062-6.0156-4.0898 0-6.7383 0.48047-8.9062 4.0898zm-23.348-21.906c-0.72266 9.8711-5.2969 17.574-14.445 22.871 0.24219-0.96484 0-1.9258 0.48438-2.6484 2.4062-6.0195 4.8125-12.035 7.4609-18.055 0.96094-2.168 1.4453-2.8867 2.8867-2.8867 0.96484 0 1.9258 0.23828 3.6133 0.71875z"/>
</symbol>
<symbol id="d" overflow="visible">
<path d="m62.828-76.547c-1.6875 0.96094-3.6133 2.1641-4.8164 3.8516-1.9258 2.6484-3.6094 5.7773-5.5352 8.6641-7.4609 11.797-13.961 24.312-24.07 34.184-3.6133 3.3672-6.7422 6.9805-12.52 9.6289-0.72266-7.2227-1.6836-13-1.4453-19.02 0.48438-14.441 5.0586-37.551 13.965-49.586 2.8867-3.6094 5.7773-7.2227 9.1445-10.594 8.4258-8.4219 14.684-18.293 19.98-28.883 5.0547-9.6289 6.5-19.5 5.5352-29.852-0.48047-5.0547-1.9258-6.9805-6.9805-7.7031-1.9258-0.23828-3.6094-0.23828-5.293-0.23828-8.9062 0-14.926 3.3672-19.5 12.758-4.8125 9.8672-9.8672 19.738-14.441 29.605-8.9062 19.742-23.109 64.273-23.59 86.66 0 12.277 7.9414 23.59 21.18 23.59 4.8164 0 9.3906-1.6836 13.48-5.5352 8.1875-7.7031 15.648-15.887 21.426-25.277 5.5352-9.1445 11.793-18.293 17.57-27.441 0.72266-0.96094 0.96484-2.8867 0.48438-4.0898-0.48438-0.96484-1.2031-1.4453-2.168-1.4453-0.96094 0-1.6836 0.23828-2.4062 0.72266zm-10.594-63.309c-5.293 12.996-10.832 25.273-20.941 35.383 4.332-16.609 13.723-31.051 20.941-46.457 1.2031 3.8516 1.2031 7.4609 0 11.074z"/>
</symbol>
<symbol id="c" overflow="visible">
<path d="m52.234-74.621c-0.48047-0.24219-0.96094-0.48438-1.4414-0.48438-0.96484 0-1.9258 0.48438-2.8906 0.72266-0.72266 0.24219-1.4453 1.2031-1.9258 1.9258-2.4062 3.6133-4.332 7.2227-6.7383 10.832-4.0938 6.0195-8.4258 12.039-12.758 18.055-1.207 1.6836-3.3711 3.1289-5.2969 4.332-0.96484 0.48438-1.9258 0.72266-3.1289 0.72266-1.4453 0-2.8906-0.48047-3.8516-1.6836-1.2031-1.2031-1.4453-3.8516-1.2031-5.7773 0.96094-5.2969 2.4062-10.594 3.3672-15.887 1.6875-7.2227 3.3711-14.445 4.5742-21.664 0.96484-5.0547-1.2031-7.7031-6.0156-8.668-1.4453-0.23828-2.6484-0.48047-3.8516-0.48047-3.6133 0-6.0195 1.9258-7.2227 5.5352-1.2031 4.5742-2.4062 9.1484-3.8516 13.48-2.4062 6.7422-3.8516 13.48-4.332 20.461-0.24219 5.2969 0.96094 9.6289 5.0547 13.48 4.0898 4.0938 7.9414 4.8164 13.48 4.8164 9.1445 0 13.48-1.207 17.57-6.2617 7.4648-9.3867 14.684-19.016 20.703-29.605 0.72266-1.2031 1.6836-3.1289-0.24219-3.8516zm-39.234-31.535c3.6094 0 6.9805-0.24219 10.348-1.2031 2.4102-0.72266 3.1328-2.8906 3.1328-5.5352-0.24219-2.6484-1.6875-3.6133-4.3359-3.8516h-2.1641c-5.2969 0-8.668 1.2031-10.109 4.0898-2.168 3.3711-0.72266 6.5 3.1289 6.5z"/>
</symbol>
<symbol id="b" overflow="visible">
<path d="m65.957-111.21c-21.664 19.496-28.887 36.348-38.035 62.344h-1.2031c-2.4062-6.0156-4.5742-12.273-6.9805-18.293-1.6836-4.0938-3.8516-7.9453-6.0156-12.035-2.168-4.0938-6.0195-4.8164-10.352-4.8164-7.2227 0.48438-8.9062 2.6484-5.5391 8.9062 6.9805 14.203 10.113 28.887 13.242 44.293 0.48047 2.8906 1.6836 4.8164 4.332 5.7773 2.4062 0.72266 4.8125 1.2031 7.2227 1.2031 1.9258 0 3.8516-0.23828 5.7773-0.96094 1.4414-0.72266 3.6094-2.6484 3.6094-3.8516 0.24219-8.4258 3.6094-15.887 6.2578-23.59 6.7422-20.461 16.371-39.238 30.332-55.848 0.96094-1.2031 1.6836-2.6484 2.6484-4.332-3.8516 0-3.8516 0-5.2969 1.2031z"/>
</symbol>
</defs>
<g>
<g>
<use x="16.14593" y="206.536941" xlink:href="#e"/>
</g>
<g>
<use x="153.353717" y="206.536941" xlink:href="#a"/>
</g>
<g>
<use x="212.569712" y="206.536941" xlink:href="#d"/>
</g>
<g>
<use x="270.582124" y="206.536941" xlink:href="#c"/>
</g>
<g>
<use x="316.318058" y="206.536941" xlink:href="#a"/>
</g>
<g>
<use x="375.53407" y="206.536941" xlink:href="#b"/>
</g>
<g>
<use x="434.509328" y="206.536941" xlink:href="#a"/>
</g>
<path d="m707.18 117.59c-2.6953-21.254-17.777-24.848-21.988-25.438 1.1484-0.53125 3.3164-2.8633 7.0078-11.152 6.207-13.934-7.6406-32.617-5.7695-38.934 1.8633-6.3164 0.54688-11.102 0.54688-11.102s5.7109-10.383-2.0664-20.664c-7.7773-10.285-16.137-6.9102-41.766 23.793-25.625 30.699-35.926 88.375-35.926 88.375s-0.13672 0.99609-0.082032 2.7305c-0.27344-0.38672-0.42578-0.59766-0.42578-0.59766l-3.0273-2.1836c0.4375-0.48828 0.73828-1.1055 0.83594-1.8047 0.23047-1.6836-0.80859-3.2461-2.3789-3.7344 4.5273-45.02 11.707-51.676 11.707-51.676-12.41 9.6758-13.535 51.375-13.535 51.375l0.38672 0.17969c-0.94531 0.11719-1.793 0.62891-2.3398 1.3828-0.125-0.03125-0.25781-0.058594-0.39062-0.078125-0.19531-0.027344-0.38672-0.03125-0.57812-0.027344-0.71875-3.6602-8.3633-41.074-21.477-48.281 0 0 8.1094 5.4062 19.695 48.848-0.56641 0.37891-1.0156 0.91797-1.2773 1.5664-19.594-19.535-75.77-73.109-106.58-77.379 0 0-24.055-4.3242 6.5195 28.844 30.578 33.168 28.973 56.613 50.391 58.598 0 0-17.809 19.883 34.758 61.359 43.34 34.195 41.672-15.387 33.738-39.652l5.5391 6.1953c0.94531 13.652 10.07 21.836 10.07 21.836 3.8008-3.9609 1.6484-12.738-2.5273-22.16 1.1484 0.88672 2.3633 1.7734 3.6523 2.6484 25.539 17.348 46.863 15.621 52.238 14.477 5.3711-1.1484 10.84-7.0469 10.84-7.0469s17.348-25.535 14.207-50.297" fill="#ffa290"/>
</g>
</svg>
