<svg xmlns="http://www.w3.org/2000/svg" xmlns:xlink="http://www.w3.org/1999/xlink" width="1000" height="300" viewBox="0 0 750 225" version="1.2"><defs><symbol overflow="visible" id="a"><path style="stroke:none" d="M155.504-12.277c.484-4.09.723-7.461 1.445-10.59.242-2.168.965-4.094 1.203-6.262 2.649-12.996 5.055-26.238 7.703-39.234 1.446-6.5 3.13-13 4.575-19.258 1.445-6.258-.243-12.035-3.371-17.332-2.649-4.817-6.5-6.742-12.036-6.742-6.98 0-12.515 2.41-17.574 7.222-2.644 2.891-6.015 4.817-9.144 7.223.96-.965 1.203-2.648 1.683-4.574.965-4.332 2.168-8.906 3.371-13.48 1.684-7.704.723-14.926-4.093-21.665-3.61-4.816-6.98-6.258-12.758-6.258-3.13.48-6.258.72-9.387.961-3.613 0-6.5 1.446-8.668 4.094-4.332 5.293-8.664 10.348-12.758 15.645-2.886 3.851-5.054 7.945-7.703 12.52.242-2.891.485-5.055.965-6.981 2.887-10.352 1.203-20.461-2.406-30.332-6.02-15.887-19.98-20.942-35.63-20.942-15.644 0-29.124 4.813-37.55 18.774-4.332 7.465-4.332 14.445-.723 21.664 3.61 7.703 6.739 9.148 14.684 9.148 3.61 0 7.223-.48 10.59-1.203 7.465-1.926 11.797-8.906 11.316-16.367-.242-4.574-2.406-6.98-5.777-6.98-1.203 0-2.648.238-4.332.96v5.778c-.242 5.054-2.168 9.386-6.984 11.797-1.204.718-2.887 1.203-4.57 1.203-.723 0-1.446-.242-1.927-.485-6.5-4.812-9.87-12.996-6.02-20.46 6.981-14.684 16.61-18.294 32.017-18.294 12.035.48 20.703 10.352 20.218 20.942-.48 13.242-3.367 25.758-6.98 38.277-2.164 7.219-5.293 14.2-7.703 21.422-7.461 21.906-14.922 43.813-22.867 65.719-.961 2.644-.481 4.332 1.445 6.258 2.164 2.164 5.055 3.129 7.703 3.129 4.574 0 9.148-2.649 11.07-6.98 2.89-6.259 5.297-12.52 8.188-18.778C57.773-44.531 63.07-56.57 68.605-68.363c5.778-12.52 12.036-25.035 17.332-37.793 2.887-7.223 16.852-31.055 25.758-31.055 1.203 0 2.407.242 3.61.723v2.89c-1.926 9.868-3.852 19.739-6.02 29.606-1.441 6.98-2.644 13.722-4.812 20.46-2.168 6.981-5.297 13.723-7.946 20.462-1.441 4.093-2.648 8.187-3.851 12.277-1.442 4.574.484 7.223 5.054 7.703 7.465 0 11.555-3.367 14.688-10.351 3.367-8.184 8.184-15.407 13.719-22.145 6.258-7.223 12.035-14.684 17.812-22.387 1.203-1.445 2.41-2.168 3.852-2.168.965 0 2.168.485 3.37 1.204-.96 5.539-1.444 11.074-2.886 16.609-4.336 16.613-8.187 32.98-10.594 50.07-.48 4.574-.722 9.149.723 13.723 1.926 7.46 9.387 12.035 16.852 12.035 2.406 0 5.054-.48 7.218-1.684 7.465-3.613 12.04-9.87 16.13-16.37 1.445-2.165 2.89-5.055.722-8.184-8.906 5.535-12.758 16.37-23.832 20.46zm0 0"/></symbol><symbol overflow="visible" id="b"><path style="stroke:none" d="M50.309-75.828c-2.407 1.203-4.57 1.687-6.98 1.687-1.927 0-3.852-.242-6.017-.722v-9.149c0-13.238-8.906-21.664-21.906-21.664-5.054 0-10.351 3.61-12.035 8.426-1.926 5.055.48 17.332 7.703 19.016-1.926-.723-3.37-.961-4.816-.961-4.09 0-6.016 3.129-7.219 8.664-.723 4.094-1.207 8.426-1.687 12.52-.239 2.644 0 5.054.242 7.702 1.203 7.7 12.277 9.625 18.535 9.625 8.906-.48 13.96-4.332 16.129-12.996.96-3.613 1.683-7.222 2.406-10.832 1.445-5.297 1.445-5.054 6.98-5.539 5.055-.238 10.11-1.203 14.926-2.164 1.926-.242 4.09-1.203 4.09-4.094-1.441-.96-2.887-1.445-4.332-1.445-2.168 0-4.094.965-6.02 1.926zM18.293-46.941c-.238.242-.48.484-.719.484-2.168 0-3.37-8.668-2.89-13.242.48-3.852.722-7.461.48-11.074 0-5.055-3.367-7.22-3.367-7.22s.238.24 1.203.723c5.535 2.165 11.07 4.57 16.848 6.739-.72 9.148-6.739 16.129-11.555 23.59zm12.277-29.61c-8.425 0-10.832-6.738-13.718-12.758-1.926-4.09-2.41-8.421 1.441-12.035 9.148 3.13 13.965 13.239 12.277 24.793zm0 0"/></symbol><symbol overflow="visible" id="c"><path style="stroke:none" d="M70.05-146.598c-.722-1.925-1.687-2.406-2.89-2.406-.722 0-1.445.238-2.406.48-6.742 2.165-24.313 5.055-30.57 5.778-.243-1.203-.485-1.688-.243-2.168.48-3.371 1.446-6.5 1.926-9.629a91.97 91.97 0 0 0 0-11.555c-.722-3.851-4.332-4.574-7.703-4.574-3.61 0-6.02 1.688-6.258 7.223-.722 7.945-2.89 15.887-5.777 23.351-15.406 2.164-14.203 2.649-29.367 4.813-1.926.48-4.094 1.926-5.778 2.648-1.445.961-2.89 2.407-2.89 3.852-.239 1.203.722 1.445 1.687 1.445.961 0 1.926-.242 2.645-.242 11.554-1.445 22.629-5.535 32.015-5.535-.238 1.441-.718 2.164-.96 2.887-1.684 5.539-3.61 11.074-5.297 16.609-6.5 23.11-8.907 46.941-13.72 70.293-1.202 5.777-1.202 11.793-.964 17.812C-6.5-13.96 2.648-6.5 13.723-6.5c6.257 0 12.273-2.406 15.886-6.738 3.13-3.852 6.5-7.465 9.149-11.555 9.867-14.926 19.254-29.852 27.441-45.738 1.203-2.406 1.926-4.813-.484-6.739-.961-.722-1.926-1.207-3.13-1.207-3.85 0-7.702 6.262-9.386 9.149-4.574 8.426-9.148 17.094-13.238 25.758-5.055 10.11-11.555 19.258-19.258 27.683-1.203 1.446-3.129 2.407-4.816 3.61-3.61-3.13-4.575-6.98-4.575-10.832 0-5.536 0-11.075.723-16.368 4.332-32.5 11.797-64.753 20.461-96.53 12.52-1.684 15.168-2.165 27.203-3.852 2.649-.48 4.813-.961 7.223-1.926 2.644-.961 3.851-2.649 3.129-4.813zm0 0"/></symbol><symbol overflow="visible" id="d"><path style="stroke:none" d="M52.234-74.625c-.48-.238-.96-.48-1.441-.48-.965 0-1.926.48-2.89.722-.723.242-1.446 1.203-1.926 1.926-2.407 3.61-4.332 7.223-6.739 10.832-4.093 6.02-8.425 12.035-12.758 18.055-1.203 1.683-3.37 3.129-5.296 4.332-.965.48-1.926.722-3.13.722-1.445 0-2.89-.48-3.85-1.683C13-41.402 12.757-44.051 13-45.977c.96-5.296 2.406-10.593 3.367-15.886 1.688-7.223 3.371-14.446 4.574-21.668.965-5.055-1.203-7.703-6.015-8.664-1.446-.243-2.649-.48-3.852-.48-3.613 0-6.02 1.925-7.222 5.534C2.648-82.566 1.445-77.992 0-73.66c-2.406 6.74-3.852 13.481-4.332 20.462-.242 5.297.96 9.629 5.055 13.48 4.09 4.094 7.941 4.813 13.48 4.813 9.149 0 13.48-1.203 17.57-6.258 7.465-9.387 14.684-19.016 20.704-29.61.722-1.203 1.683-3.128-.243-3.851zM13-106.156c3.61 0 6.98-.242 10.352-1.203 2.406-.723 3.128-2.891 3.128-5.54-.242-2.648-1.687-3.609-4.335-3.851H19.98c-5.296 0-8.668 1.203-10.109 4.094-2.168 3.37-.723 6.5 3.129 6.5zm0 0"/></symbol><symbol overflow="visible" id="e"><path style="stroke:none" d="M65.957-111.21C44.293-91.716 37.07-74.864 27.922-48.868h-1.203c-2.407-6.016-4.574-12.278-6.98-18.293-1.684-4.094-3.852-7.945-6.016-12.035-2.168-4.094-6.02-4.817-10.352-4.817-7.223.48-8.906 2.649-5.539 8.907C4.812-60.902 7.945-46.22 11.074-30.812c.48 2.89 1.684 4.816 4.332 5.777 2.406.723 4.813 1.203 7.223 1.203 1.926 0 3.851-.238 5.777-.961 1.442-.723 3.61-2.648 3.61-3.852.242-8.425 3.609-15.886 6.257-23.59 6.743-20.464 16.372-39.238 30.332-55.847.961-1.203 1.684-2.648 2.649-4.336-3.852 0-3.852 0-5.297 1.207zm0 0"/></symbol><clipPath id="f"><path d="M429.355 7.258h232.118v207.531H429.355zm0 0"/></clipPath></defs><use xlink:href="#a" x="66.01" y="206.633" style="fill:#000;fill-opacity:1"/><use xlink:href="#b" x="249.438" y="206.633" style="fill:#000;fill-opacity:1"/><use xlink:href="#c" x="306.248" y="206.633" style="fill:#000;fill-opacity:1"/><use xlink:href="#d" x="360.891" y="206.633" style="fill:#000;fill-opacity:1"/><use xlink:href="#e" x="406.628" y="206.633" style="fill:#000;fill-opacity:1"/><g clip-path="url(#f)"><path style="stroke:none;fill-rule:evenodd;fill:#8c52ff;fill-opacity:1" d="M562.703 125.93c10.8 10.136 41.567 43.097 40.54 88.855a148.85 148.85 0 0 0-2.056-6.82c-9.925-30.012-29.625-40.766-53.468-50.742-37.934-15.875-42.887-20.098-53-59.16-2.02-7.817-4.29-14.329-13.055-26.305-2.992-4.09-4.984-6.149-7.504-7.34-8.066-3.809-31.476-3.414-40.926-3.328-.328 0-3.84.094-3.804-.254.007-.027.53-.29.933-.441 9.778-3.762 36.188-4.043 46.188-2.61.39.059.758.106 1.074.153.055-.02.227-.122.344-.2.105-.066.164-.11.21-.148 7.587-5.406 17.196-8.774 26.25-4.899 12.45 5.34 19.485 21.825 22.13 34.457.234 1.118.46 2.149.574 2.497.082-.114.297-1.907 1.14-4.696 9.801-32.152 69.438-65.863 100.055-75.969 1.68-.55 4.012-1.32 5.758-1.652.176-.035.43-.074.437-.047-9.793 12.407-15.414 23.942-20.785 35.68-5.511 12.02-10.953 23.488-17.586 34.125-8.218 13.176-22.46 31.605-37.965 35.566-6.41 1.645-9.273-.433-9.273-.433 4.133 4.816 9.066 9.281 13.79 13.71zm47.102-68.7c17.086-4.66 33.773-7.617 45.55-7.73 1.684-.02 4-.047 5.676.16.157.016.407.055.399.082-12.364 8.375-20.711 17.156-28.907 26.184-16.738 18.465-39.617 44.656-66.28 45.914-1.372.062-3.29.11-4.212.02-2.207-2.055-4.414-4.13-6.527-6.25a23.52 23.52 0 0 0 3.746-.704c16.32-4.375 30.582-22.879 39.234-36.812 4.133-6.656 7.805-13.637 11.32-20.864"/></g></svg>